<svg xmlns="http://www.w3.org/2000/svg" viewBox="409.85 -9.1 52 52">
  <rect x="409.85" y="-9.1" width="52" height="52" rx="11" fill="#06130d"/>
  <path fill="#00d878" d="M424.3,9.6c-.2-.4-.4-.8-.6-1.2-.6-.7-.6-1.5,0-2.1.5-.5,1-1,1.5-1.5.7-.6,1.4-.6,2.1,0,.7.6,1.5.8,2.3.4.8-.3,1.6-.6,2.4-1,.8-.3,1.2-.9,1.3-1.7,0-1,.6-1.5,1.6-1.5h2c.9,0,1.4.6,1.5,1.4,0,.9.5,1.5,1.3,1.8.9.3,1.7.7,2.6,1.1.8.3,1.5.2,2.2-.4.9-.8,1.5-.8,2.4,0,.5.4.9.9,1.3,1.3.6.7.7,1.4,0,2.1-.7.7-.9,1.5-.5,2.5.3.8.6,1.6,1,2.4.3.8.9,1.2,1.8,1.3.9,0,1.4.6,1.4,1.5v2.1c0,.8-.5,1.4-1.4,1.4-1,0-1.6.5-2,1.4-.3.8-.7,1.6-1.1,2.5-.3.8-.3,1.4.3,2.1.5.6.5,1.3,0,1.9-.5.5-1,1.1-1.6,1.6-.6.6-1.3.6-2,0-.7-.6-1.4-.7-2.2-.3-.8.3-1.7.6-2.5,1-.8.3-1.3.9-1.3,1.7,0,.9-.6,1.4-1.5,1.4h-2.2c-.8,0-1.4-.5-1.4-1.3,0-1-.5-1.6-1.4-2-.8-.3-1.5-.7-2.3-1-.8-.3-1.5-.2-2.1.3-.8.6-1.5.6-2.2,0-.5-.5-1-.9-1.4-1.4-.6-.7-.7-1.4,0-2.1.7-.7.8-1.5.4-2.4-.3-.7-.6-1.5-.9-2.2-.3-.8-.9-1.3-1.8-1.3-1,0-1.5-.6-1.5-1.6v-2c0-.9.6-1.5,1.5-1.5,1,0,1.6-.5,2-1.4.3-.8.6-1.5,1-2.3.1-.3.2-.6.3-1h0Z"/>
</svg>
